<svg width="22" height="22" viewBox="0 0 22 22" fill="none" xmlns="http://www.w3.org/2000/svg">
<path d="M0.000244141 8.22829V7.98543C0.000244141 5.05861 2.17103 2.56224 5.13071 2.08155C7.05142 1.76375 9.08384 2.38596 10.4846 3.75306L11.0002 4.25468L11.4772 3.75306C12.9167 2.38596 14.9104 1.76375 16.8698 2.08155C19.8303 2.56224 22.0002 5.05861 22.0002 7.98543V8.22829C22.0002 9.96595 21.2612 11.6283 19.9549 12.8132L12.1905 19.8769C11.8682 20.17 11.4428 20.3333 11.0002 20.3333C10.5577 20.3333 10.1323 20.17 9.81001 19.8769L2.04513 12.8132C0.740596 11.6283 0.000257031 9.96595 0.000257031 8.22829H0.000244141Z" fill="#0065FC"/>
</svg>
