<svg width="22" height="22" viewBox="0 0 22 22" fill="none" xmlns="http://www.w3.org/2000/svg">
<path d="M12.7398 2.0625C12.7398 3.2016 11.8365 4.125 10.723 4.125C9.60961 4.125 8.70626 3.2016 8.70626 2.0625C8.70626 0.923398 9.60961 0 10.723 0C11.8365 0 12.7398 0.923398 12.7398 2.0625ZM10.3869 15.125V20.625C10.3869 21.3855 9.78608 22 9.04239 22C8.2987 22 7.69786 21.3855 7.69786 20.625V11.0387L6.49745 13.084C6.1151 13.7328 5.28905 13.9434 4.6525 13.5523C4.01594 13.1613 3.81003 12.3191 4.19255 11.666L6.64114 7.50234C7.37013 6.26055 8.68105 5.5 10.097 5.5H11.3491C12.765 5.5 14.076 6.26055 14.8071 7.50234L17.2524 11.666C17.6348 12.3191 17.4289 13.1613 16.7944 13.5523C16.1558 13.9434 15.3323 13.7328 14.9499 13.084L13.7482 11.0387V20.625C13.7482 21.3855 13.1474 22 12.4037 22C11.66 22 11.0592 21.3855 11.0592 20.625V15.125H10.3869Z" fill="#0065FC"/>
</svg>
